<?xml version="1.0" encoding="utf-8"?>
<svg version="1.1" xmlns="http://www.w3.org/2000/svg" xmlns:xlink="http://www.w3.org/1999/xlink" x="0px" y="0px"
	 viewBox="0 0 1024 748" style="enable-background:new 0 0 1024 748;" xml:space="preserve">
<path class="st0" d="M516.7,309.2c30.9,0,61.8-0.1,92.7,0.1c3.4,0,7,0.8,10,2.3c4.9,2.4,7.4,6.8,7.4,12.4c0,32.6,0.1,65.2,0,97.8
	c0,10.2-6.5,16.8-16.6,16.8c-19.5,0.1-39,0.1-58.5,0c-6,0-9.8-3-11.9-8.7c-3.3-9.4-6.7-18.8-10-28.2c-2.4-6.7-7.1-10.3-13.5-10.5
	c-6.1-0.2-11.1,3.4-13.6,9.8c-3.9,9.7-7.8,19.5-11.7,29.2c-2.4,5.9-6,8.4-12.4,8.4c-18.3,0-36.6,0-54.9,0
	c-11.3,0-17.7-6.4-17.7-17.6c0-31.2,0-62.4,0-93.6c0-12.1,6.2-18.2,18.3-18.2C455.1,309.1,485.9,309.2,516.7,309.2z M588.5,377.5
	c0-13.3-11.1-24.6-24.2-24.7c-13.4-0.1-24.9,11.4-24.8,24.9c0.1,13.3,11.2,24.3,24.6,24.3C577.5,401.9,588.5,390.9,588.5,377.5z
	 M444.8,377.1c-0.1,13.7,10.8,24.7,24.4,24.8c13.4,0.1,24.5-10.9,24.6-24.3c0.1-13.5-11-24.8-24.3-24.9
	C456.3,352.6,444.9,363.9,444.8,377.1z"/>
</svg>
